<?xml version="1.0" encoding="UTF-8" standalone="no"?>
<svg
   width="24"
   height="24"
   viewBox="0 0 24 24"
   version="1.1"
   id="svg4"
   sodipodi:docname="bx-cube-alt.svg"
   inkscape:version="1.1.1 (3bf5ae0d25, 2021-09-20)"
   xmlns:inkscape="http://www.inkscape.org/namespaces/inkscape"
   xmlns:sodipodi="http://sodipodi.sourceforge.net/DTD/sodipodi-0.dtd"
   xmlns:xlink="http://www.w3.org/1999/xlink"
   xmlns="http://www.w3.org/2000/svg"
   xmlns:svg="http://www.w3.org/2000/svg">
  <defs
     id="defs8">
    <linearGradient
       id="linearGradient827"
       inkscape:swatch="solid">
      <stop
         style="stop-color:#779ac5;stop-opacity:1;"
         offset="0"
         id="stop825" />
    </linearGradient>
    <linearGradient
       inkscape:collect="always"
       xlink:href="#linearGradient827"
       id="linearGradient829"
       x1="1.9992839"
       y1="12"
       x2="22.000716"
       y2="12"
       gradientUnits="userSpaceOnUse" />
  </defs>
  <sodipodi:namedview
     id="namedview6"
     pagecolor="#ffffff"
     bordercolor="#666666"
     borderopacity="1.0"
     inkscape:pageshadow="2"
     inkscape:pageopacity="0.0"
     inkscape:pagecheckerboard="0"
     showgrid="false"
     inkscape:zoom="21.666667"
     inkscape:cx="11.976923"
     inkscape:cy="12.023077"
     inkscape:window-width="1366"
     inkscape:window-height="705"
     inkscape:window-x="-8"
     inkscape:window-y="-8"
     inkscape:window-maximized="1"
     inkscape:current-layer="svg4" />
  <path
     d="M17.895 3.553A1.001 1.001 0 0 0 17 3H7c-.379 0-.725.214-.895.553l-4 8a1 1 0 0 0 0 .895l4 8c.17.338.516.552.895.552h10c.379 0 .725-.214.895-.553l4-8a1 1 0 0 0 0-.895l-4-7.999zM19.382 11h-7.764l-3-6h7.764l3 6zM4.118 12 7 6.236 9.882 12 7 17.764 4.118 12zm12.264 7H8.618l3-6h7.764l-3 6z"
     id="path2"
     style="fill-opacity:1;fill:url(#linearGradient829)" />
</svg>
