<?xml version="1.0" encoding="UTF-8" standalone="no"?>
<svg
   width="24"
   height="24"
   viewBox="0 0 24 24"
   version="1.1"
   id="svg8"
   sodipodi:docname="bx-layer.svg"
   inkscape:version="1.1.1 (3bf5ae0d25, 2021-09-20)"
   xmlns:inkscape="http://www.inkscape.org/namespaces/inkscape"
   xmlns:sodipodi="http://sodipodi.sourceforge.net/DTD/sodipodi-0.dtd"
   xmlns:xlink="http://www.w3.org/1999/xlink"
   xmlns="http://www.w3.org/2000/svg"
   xmlns:svg="http://www.w3.org/2000/svg">
  <defs
     id="defs12">
    <linearGradient
       id="linearGradient843"
       inkscape:swatch="solid">
      <stop
         style="stop-color:#779ac5;stop-opacity:1;"
         offset="0"
         id="stop841" />
    </linearGradient>
    <linearGradient
       id="linearGradient837"
       inkscape:swatch="solid">
      <stop
         style="stop-color:#779ac5;stop-opacity:1;"
         offset="0"
         id="stop835" />
    </linearGradient>
    <linearGradient
       id="linearGradient831"
       inkscape:swatch="solid">
      <stop
         style="stop-color:#779ac5;stop-opacity:1;"
         offset="0"
         id="stop829" />
    </linearGradient>
    <linearGradient
       inkscape:collect="always"
       xlink:href="#linearGradient831"
       id="linearGradient833"
       x1="2.0004229"
       y1="8.0005211"
       x2="22.000001"
       y2="8.0005211"
       gradientUnits="userSpaceOnUse" />
    <linearGradient
       inkscape:collect="always"
       xlink:href="#linearGradient837"
       id="linearGradient839"
       x1="2.514"
       y1="14.562882"
       x2="21.485"
       y2="14.562882"
       gradientUnits="userSpaceOnUse" />
    <linearGradient
       inkscape:collect="always"
       xlink:href="#linearGradient843"
       id="linearGradient845"
       x1="2.514"
       y1="18.562882"
       x2="21.485"
       y2="18.562882"
       gradientUnits="userSpaceOnUse" />
  </defs>
  <sodipodi:namedview
     id="namedview10"
     pagecolor="#ffffff"
     bordercolor="#666666"
     borderopacity="1.0"
     inkscape:pageshadow="2"
     inkscape:pageopacity="0.0"
     inkscape:pagecheckerboard="0"
     showgrid="false"
     inkscape:zoom="21.666667"
     inkscape:cx="11.976923"
     inkscape:cy="12.023077"
     inkscape:window-width="1366"
     inkscape:window-height="705"
     inkscape:window-x="-8"
     inkscape:window-y="-8"
     inkscape:window-maximized="1"
     inkscape:current-layer="svg8" />
  <path
     d="M22 7.999a1 1 0 0 0-.516-.874l-9.022-5a1.003 1.003 0 0 0-.968 0l-8.978 4.96a1 1 0 0 0-.003 1.748l9.022 5.04a.995.995 0 0 0 .973.001l8.978-5A1 1 0 0 0 22 7.999zm-9.977 3.855L5.06 7.965l6.917-3.822 6.964 3.859-6.918 3.852z"
     id="path2"
     style="fill-opacity:1;fill:url(#linearGradient833)" />
  <path
     d="M20.515 11.126 12 15.856l-8.515-4.73-.971 1.748 9 5a1 1 0 0 0 .971 0l9-5-.97-1.748z"
     id="path4"
     style="fill-opacity:1;fill:url(#linearGradient839)" />
  <path
     d="M20.515 15.126 12 19.856l-8.515-4.73-.971 1.748 9 5a1 1 0 0 0 .971 0l9-5-.97-1.748z"
     id="path6"
     style="fill-opacity:1;fill:url(#linearGradient845)" />
</svg>
