<?xml version="1.0" encoding="UTF-8" standalone="no"?>
<svg
   width="16"
   height="16"
   fill="currentColor"
   class="bi bi-hexagon"
   viewBox="0 0 16 16"
   version="1.1"
   id="svg4"
   sodipodi:docname="hexagon.svg"
   inkscape:version="1.1.1 (3bf5ae0d25, 2021-09-20)"
   xmlns:inkscape="http://www.inkscape.org/namespaces/inkscape"
   xmlns:sodipodi="http://sodipodi.sourceforge.net/DTD/sodipodi-0.dtd"
   xmlns:xlink="http://www.w3.org/1999/xlink"
   xmlns="http://www.w3.org/2000/svg"
   xmlns:svg="http://www.w3.org/2000/svg">
  <defs
     id="defs8">
    <linearGradient
       id="linearGradient827"
       inkscape:swatch="solid">
      <stop
         style="stop-color:#779ac5;stop-opacity:1;"
         offset="0"
         id="stop825" />
    </linearGradient>
    <linearGradient
       inkscape:collect="always"
       xlink:href="#linearGradient827"
       id="linearGradient829"
       x1="1"
       y1="8"
       x2="15"
       y2="8"
       gradientUnits="userSpaceOnUse" />
  </defs>
  <sodipodi:namedview
     id="namedview6"
     pagecolor="#ffffff"
     bordercolor="#666666"
     borderopacity="1.0"
     inkscape:pageshadow="2"
     inkscape:pageopacity="0.0"
     inkscape:pagecheckerboard="0"
     showgrid="false"
     inkscape:zoom="32.5"
     inkscape:cx="7.9846154"
     inkscape:cy="7.9846154"
     inkscape:window-width="1366"
     inkscape:window-height="705"
     inkscape:window-x="-8"
     inkscape:window-y="-8"
     inkscape:window-maximized="1"
     inkscape:current-layer="svg4" />
  <path
     d="M14 4.577v6.846L8 15l-6-3.577V4.577L8 1zM8.5.134a1 1 0 0 0-1 0l-6 3.577a1 1 0 0 0-.5.866v6.846a1 1 0 0 0 .5.866l6 3.577a1 1 0 0 0 1 0l6-3.577a1 1 0 0 0 .5-.866V4.577a1 1 0 0 0-.5-.866z"
     id="path2"
     style="fill-opacity:1;fill:url(#linearGradient829)" />
</svg>
